#!OML:ASF E:\Steps\Project 1\Capture day 1\Session 2\Subject.ASF
:FULLY-SPECIFIED
:DEGREES
246
root 10.5384 16.4994 14.5722 -161.907 5.61682 170.463
lowerback -20.1458 1.84629 5.14512
upperback 1.79168 1.13143 1.38663
thorax 13.4903 0.885375 -1.00322
lowerneck -0.925054 3.32024 1.4104
upperneck 16.5176 6.49308 -5.81237
head 5.35322 3.34831 -1.68049
rclavicle -4.77083e-015 -7.95139e-015
rhumerus -33.61 1.51407 -62.8806
rradius 64.8991
rwrist -8.28542
rhand -4.99198 -50.9621
rfingers 7.12502
rthumb 20.8011 -79.8671
lclavicle -4.77083e-015 -7.95139e-015
lhumerus -47.0644 0.215512 59.8757
lradius 29.9448
lwrist 3.57185
lhand -17.4274 -14.0453
lfingers 7.12502
lthumb 8.82295 15.7502
rfemur -4.30992 8.88459 -13.6779
rtibia 41.2169
rfoot -41.6725 -3.15886
rtoes -53.1185
lfemur -41.8111 -4.76227 5.78476
ltibia 13.4302
lfoot 24.594 24.612
ltoes -16.7007
247
root 10.3974 16.3903 14.4715 -161.373 5.9724 171.173
lowerback -20.3396 1.9485 5.27582
upperback 2.06981 1.20108 1.37715
thorax 13.9397 0.933843 -1.05398
lowerneck -1.10192 3.26699 1.64998
upperneck 15.8243 6.22603 -5.73512
head 5.16141 3.20065 -1.7151
rclavicle -1.19271e-014 -5.24792e-014
rhumerus -33.4985 0.775682 -62.9608
rradius 65.2347
rwrist -7.85587
rhand -1.38702 -58.7016
rfingers 7.12502
rthumb 24.2612 -87.1866
lclavicle -1.19271e-014 -5.24792e-014
lhumerus -46.1454 -0.267609 59.7083
lradius 29.9537
lwrist 3.73094
lhand -17.5998 -14.2965
lfingers 7.12502
lthumb 8.65657 15.506
rfemur -4.56208 9.00785 -13.8911
rtibia 41.1243
rfoot -41.5557 -2.24426
rtoes -52.845
lfemur -42.4743 -3.54853 4.99012
ltibia 15.6271
lfoot 24.6671 24.1495
ltoes -12.677
248
root 10.2561 16.2769 14.3737 -160.789 6.43481 171.899
lowerback -19.9172 1.92952 5.17543
upperback 2.07194 1.21502 1.5121
thorax 13.6886 0.923337 -0.850699
lowerneck -1.49138 3.40587 1.50165
upperneck 15.4056 6.25185 -5.41095
head 5.08563 3.18672 -1.58595
rclavicle 7.15625e-015 1.59028e-015
rhumerus -33.4802 0.770388 -62.9209
rradius 65.4822
rwrist -7.86981
rhand -4.34267 -53.9097
rfingers 7.12502
rthumb 21.4249 -82.745
lclavicle 7.15625e-015 1.59028e-015
lhumerus -45.6317 -0.601164 59.6397
lradius 29.9565
lwrist 3.90344
lhand -17.8367 -14.3492
lfingers 7.12502
lthumb 8.4279 15.4627
rfemur -5.04987 9.26795 -14.1132
rtibia 41.1518
rfoot -41.3652 -1.9202
rtoes -53.1934
lfemur -43.3565 -1.66287 3.74754
ltibia 18.8364
lfoot 19.8574 22.7454
ltoes -12.5349
249
root 10.1138 16.1641 14.2794 -160.356 6.75283 172.527
lowerback -19.2533 1.80624 4.98179
upperback 1.96509 1.13702 1.6081
thorax 13.1617 0.861039 -0.678033
lowerneck -1.55489 3.549 1.46946
upperneck 15.188 6.34373 -5.10554
head 5.02253 3.23112 -1.48335
rclavicle -3.18055e-015 -5.24792e-014
rhumerus -34.2807 0.817794 -62.9381
rradius 66.4531
rwrist -7.87207
rhand -2.58529 -60.5251
rfingers 7.12502
rthumb 23.1119 -89.1589
lclavicle -3.18055e-015 -5.24792e-014
lhumerus -45.4007 -1.14482 59.5127
lradius 30.0054
lwrist 4.29887
lhand -18.2722 -13.8182
lfingers 7.12502
lthumb 8.00759 16.0102
rfemur -5.36721 9.47919 -14.3863
rtibia 41.3311
rfoot -41.1023 -1.36695
rtoes -53.2908
lfemur -44.4191 0.234363 2.28919
ltibia 22.8035
lfoot 10.1719 19.6673
ltoes -16.7385
250
root 9.97271 16.0496 14.1907 -159.915 7.01422 173.127
lowerback -18.4495 1.703 4.72427
upperback 1.8474 1.11003 1.65448
thorax 12.5456 0.818675 -0.513317
lowerneck -1.80909 3.52776 1.73737
upperneck 15.2348 6.25618 -4.99342
head 5.08085 3.19286 -1.4915
rclavicle 3.06128e-014 1.01778e-013
rhumerus -34.8655 0.660887 -62.9389
rradius 66.8854
rwrist -7.71805
rhand -5.45041 -51.8536
rfingers 7.12502
rthumb 20.3606 -80.8062
lclavicle 3.06128e-014 1.01778e-013
lhumerus -44.935 -1.71644 59.2878
lradius 29.9186
lwrist 4.71807
lhand -18.5317 -13.5381
lfingers 7.12502
lthumb 7.75713 16.2996
rfemur -5.68726 9.64163 -14.6884
rtibia 41.5573
rfoot -40.8582 -0.613984
rtoes -53.2634
lfemur -45.4978 1.80532 1.21286
ltibia 26.346
lfoot 7.22325 17.4659
ltoes -41.1881
251
root 9.83639 15.9334 14.1047 -159.47 7.25875 173.825
lowerback -17.6945 1.58079 4.42335
upperback 1.81027 1.04782 1.77741
thorax 12.0493 0.757862 -0.245364
lowerneck -2.04405 3.54391 1.91552
upperneck 15.1082 6.18736 -4.82286
head 5.07894 3.15878 -1.46859
rclavicle 3.97569e-016 7.95139e-015
rhumerus -35.2559 0.495957 -62.9177
rradius 67.1777
rwrist -7.64887
rhand -4.89898 -52.2368
rfingers 7.12502
rthumb 20.8905 -81.132
lclavicle 3.97569e-016 7.95139e-015
lhumerus -44.2152 -2.05557 59.0693
lradius 29.7068
lwrist 5.00926
lhand -18.5063 -13.9682
lfingers 7.12502
lthumb 7.78164 15.8686
rfemur -6.03065 9.9259 -14.8263
rtibia 41.7424
rfoot -40.6786 -0.381427
rtoes -53.8306
lfemur -46.3755 3.30134 0.571172
ltibia 28.8105
lfoot 4.63101 16.4828
ltoes -48.1802
252
root 9.70611 15.8211 14.0203 -159.157 7.31973 174.662
lowerback -17.0346 1.346 4.17207
upperback 1.93963 0.795868 2.01455
thorax 11.7928 0.612435 0.0763687
lowerneck -2.04936 3.70886 1.8502
upperneck 14.6155 6.27614 -4.5143
head 4.92015 3.19644 -1.36458
rclavicle 7.95139e-016 3.18055e-015
rhumerus -35.3505 0.0768531 -62.9373
rradius 67.1615
rwrist -7.47731
rhand -4.91288 -52.2034
rfingers 7.12502
rthumb 20.8771 -81.1
lclavicle 7.95139e-016 3.18055e-015
lhumerus -43.4256 -2.16826 58.8687
lradius 29.4581
lwrist 5.03456
lhand -18.8324 -14.5343
lfingers 7.12502
lthumb 7.46696 15.3139
rfemur -6.09946 10.3981 -14.6093
rtibia 41.8345
rfoot -40.3838 -0.271315
rtoes -54.4633
lfemur -47.1759 4.74801 0.260575
ltibia 30.7587
lfoot 1.65621 15.2782
ltoes -46.5823
253
root 9.58003 15.718 13.9472 -158.941 7.06134 175.602
lowerback -16.359 0.982873 4.03844
upperback 2.15763 0.337573 2.34621
thorax 11.6267 0.377615 0.386767
lowerneck -1.8473 3.81654 1.66728
upperneck 13.9582 6.29357 -4.22107
head 4.67061 3.19821 -1.25767
rclavicle 1.47101e-014 4.77083e-014
rhumerus -35.3047 -0.0748583 -63.0839
rradius 67.5252
rwrist -7.65676
rhand -5.06692 -54.8805
rfingers 7.12502
rthumb 20.7291 -83.7933
lclavicle 1.47101e-014 4.77083e-014
lhumerus -42.6795 -2.18019 58.7189
lradius 29.154
lwrist 4.57518
lhand -19.7322 -15.0757
lfingers 7.12502
lthumb 6.59838 14.8015
rfemur -6.00299 10.8068 -14.0751
rtibia 42.0167
rfoot -39.9268 0.0823875
rtoes -54.7347
lfemur -48.2435 5.92266 0.35012
ltibia 32.8016
lfoot -0.356426 13.3595
ltoes -47.1034
254
root 9.45876 15.62 13.8798 -158.767 6.62642 176.424
lowerback -15.6816 0.546887 3.70789
upperback 2.40093 -0.184017 2.74267
thorax 11.4932 0.0987339 0.870405
lowerneck -1.62565 3.85363 1.33564
upperneck 12.9945 6.21534 -3.81495
head 4.80075 3.17161 -1.22188
rclavicle -3.02153e-014 -1.11319e-014
rhumerus -35.2138 -0.284848 -62.9927
rradius 67.6226
rwrist -7.59783
rhand -4.35867 -54.0079
rfingers 7.12502
rthumb 21.4095 -82.845
lclavicle -3.02153e-014 -1.11319e-014
lhumerus -41.864 -2.00113 58.5166
lradius 29.1249
lwrist 4.44726
lhand -19.7362 -15.2635
lfingers 7.12502
lthumb 6.59452 14.6138
rfemur -5.80045 11.0579 -13.5881
rtibia 42.2875
rfoot -39.4894 0.520861
rtoes -54.8275
lfemur -49.5369 6.80165 0.550965
ltibia 34.9774
lfoot -1.03543 11.3831
ltoes -52.6054
255
root 9.34259 15.5257 13.8068 -158.561 6.19573 176.892
lowerback -14.8277 0.16521 3.01622
upperback 2.5224 -0.544906 2.97131
thorax 11.1306 -0.128684 1.41431
lowerneck -1.72535 3.93657 1.19949
upperneck 12.6639 6.23776 -3.52565
head 4.67983 3.17403 -1.09925
rclavicle -4.37326e-015 -2.06736e-014
rhumerus -35.3619 -0.849679 -63.0407
rradius 67.7404
rwrist -7.48808
rhand -4.90044 -50.3523
rfingers 7.12502
rthumb 20.8891 -79.2477
lclavicle -4.37326e-015 -2.06736e-014
lhumerus -41.0128 -2.2895 58.3676
lradius 29.1091
lwrist 3.78577
lhand -20.3542 -15.7209
lfingers 7.12502
lthumb 5.99788 14.1742
rfemur -5.4436 11.2497 -13.4779
rtibia 42.3603
rfoot -39.0508 0.980322
rtoes -54.8522
lfemur -50.9581 7.40663 0.420533
ltibia 37.1865
lfoot -1.77567 9.67181
ltoes -56.6855
